<svg xmlns="http://www.w3.org/2000/svg" xmlns:xlink="http://www.w3.org/1999/xlink" width="1440" height="394" viewBox="0 0 1440 394"><title>Group 5</title><defs><path id="a" d="M.814.15H1172v144.61H.814z"/><path id="c" d="M1172 7.15V394H-289.999V7.15z"/><path id="e" d="M8.347 8H.667V.32h7.68V8z"/><path id="g" d="M8.013 8H.333V.32h7.68z"/><path id="i" d="M7.68 8H0V.32h7.68V8z"/></defs><g fill="none" fill-rule="evenodd"><g transform="translate(279)"><mask id="b" fill="#fff"><use xlink:href="#a"/></mask><path d="M902.414 18.98c-55.21 20.266-114.421 52.28-176.315 49.685-58.075-2.433-109.006-35.098-166.277-40.688C492.22 21.374 443.03 77.843 376.46 77.843c-100.4 0-201.618-49.14-301.167-16.688-28.492 9.288-50.805 27.003-74.48 43.808 75.937 20.734 151.812 40.85 231.036 32.694 71.558-7.37 136.462-30.095 209.544-25.203 69.928 4.68 138.146 22.53 207.807 29.487 79.11 7.897 159.846-.852 235.42-25.518 80.953-26.418 152.131-57.19 239.629-55.466A420.966 420.966 0 0 1 1172 64.623V30.896C1084.61-1.408 988.854-12.747 902.413 18.98" fill="#93f5dc" mask="url(#b)"/><mask id="d" fill="#fff"><use xlink:href="#c"/></mask><path d="M897.75 72.49c-103.487 64.722-227.263 84.299-341.848 54.074-57.379-15.138-111.874-42.072-167.83-63.224C168.66-19.607-75.442-10.212-289.998 88.153V394h1462V19.84a650.92 650.92 0 0 0-51.328-8.716C1035.593.14 971.05 26.648 897.75 72.49" fill="#00cc99" mask="url(#d)"/><path d="M-116 109.801c-7.83 0-14.199 6.37-14.199 14.198 0 7.83 6.369 14.2 14.199 14.2s14.199-6.37 14.199-14.2c0-7.829-6.369-14.198-14.199-14.198m0 33.199c-10.476 0-19-8.525-19-19.001 0-10.477 8.524-18.999 19-18.999s19 8.522 19 18.999c0 10.476-8.524 19.001-19 19.001m-8.5 54.712a5.797 5.797 0 0 0-5.79 5.788 5.796 5.796 0 0 0 5.79 5.788 5.796 5.796 0 0 0 5.79-5.788 5.797 5.797 0 0 0-5.79-5.788m0 16.288c-5.79 0-10.5-4.71-10.5-10.5s4.71-10.5 10.5-10.5 10.5 4.71 10.5 10.5-4.71 10.5-10.5 10.5M1132.789 39.881h.023-.023zm6.72-1.171a5.79 5.79 0 0 0-4.779 2.505c-1.81 2.634-1.143 6.247 1.487 8.056a5.807 5.807 0 0 0 8.055-1.486 5.802 5.802 0 0 0-1.49-8.057 5.76 5.76 0 0 0-3.273-1.018zm-.025 16.29a10.46 10.46 0 0 1-5.939-1.845c-4.77-3.287-5.98-9.838-2.698-14.608 3.28-4.774 9.834-5.98 14.608-2.703 4.77 3.288 5.98 9.84 2.698 14.608a10.502 10.502 0 0 1-8.67 4.548zm-8.974 75.71a5.793 5.793 0 0 0-4.78 2.505 5.8 5.8 0 0 0 1.49 8.056c2.63 1.803 6.242 1.143 8.052-1.486a5.802 5.802 0 0 0-1.49-8.057 5.773 5.773 0 0 0-3.273-1.018m-.023 16.29c-2.053 0-4.124-.599-5.939-1.845-4.772-3.287-5.983-9.838-2.7-14.608 3.282-4.774 9.838-5.98 14.608-2.703 4.77 3.285 5.98 9.839 2.698 14.608a10.498 10.498 0 0 1-8.667 4.548M-32 114.928A2.074 2.074 0 0 0-34.072 117c0 1.143.929 2.072 2.072 2.072A2.074 2.074 0 0 0-29.928 117 2.074 2.074 0 0 0-32 114.928m0 9.072c-3.859 0-7-3.141-7-7 0-3.861 3.141-7 7-7s7 3.139 7 7c0 3.859-3.141 7-7 7m103.501 9.769c-3.712 0-6.733 3.02-6.733 6.731a6.74 6.74 0 0 0 6.733 6.731 6.737 6.737 0 0 0 6.73-6.731 6.739 6.739 0 0 0-6.73-6.731m0 18.231C65.16 152 60 146.84 60 140.5S65.16 129 71.501 129C77.843 129 83 134.16 83 140.5S77.843 152 71.501 152M-22.501 28.768c-3.712 0-6.73 3.021-6.73 6.733a6.737 6.737 0 0 0 6.73 6.73c3.712 0 6.733-3.018 6.733-6.73a6.741 6.741 0 0 0-6.733-6.733m0 18.232C-28.843 47-34 41.84-34 35.501-34 29.16-28.843 24-22.501 24-16.16 24-11 29.16-11 35.501-11 41.841-16.16 47-22.501 47M143.5 94.738a4.766 4.766 0 0 0-4.762 4.76 4.77 4.77 0 0 0 4.762 4.764 4.77 4.77 0 0 0 4.762-4.763 4.766 4.766 0 0 0-4.762-4.761m0 14.262c-5.238 0-9.5-4.261-9.5-9.501 0-5.238 4.262-9.499 9.5-9.499s9.5 4.261 9.5 9.499c0 5.24-4.262 9.501-9.5 9.501m-382.116 32c-1.294 0-2.357-1.063-2.384-2.389-.023-1.348 1.023-2.46 2.338-2.486 3.239-.061 6.26-1.414 8.506-3.803 2.247-2.386 3.45-5.526 3.386-8.838-.023-1.346 1.023-2.457 2.338-2.484 1.347.041 2.402 1.046 2.429 2.389.088 4.616-1.588 8.99-4.717 12.314-3.129 3.327-7.337 5.21-11.849 5.297h-.047zm1359.011-43c-3.291 0-6.51-.931-9.319-2.729-1.104-.706-1.408-2.148-.68-3.218.73-1.069 2.216-1.359 3.318-.66 2.72 1.737 5.975 2.343 9.163 1.716 3.191-.634 5.934-2.431 7.729-5.067.728-1.068 2.218-1.363 3.318-.66 1.104.706 1.408 2.149.68 3.217-2.499 3.671-6.322 6.18-10.766 7.062a17.875 17.875 0 0 1-3.443.339M86.22 86a2.58 2.58 0 0 1-.55-.061 2.362 2.362 0 0 1-1.78-2.84 11.81 11.81 0 0 0-1.495-9.073c-1.71-2.729-4.39-4.636-7.554-5.37-1.283-.3-2.078-1.57-1.777-2.838.3-1.27 1.581-2.046 2.871-1.758 4.406 1.024 8.142 3.68 10.524 7.48 2.38 3.8 3.12 8.29 2.085 12.64A2.389 2.389 0 0 1 86.22 86" fill="#FFF" mask="url(#d)"/></g><path d="M1378.84 143v7.68a3.84 3.84 0 1 0 0-7.68m0 26.667v3.84h3.84a3.84 3.84 0 0 0-3.84-3.84m30.507 3.84a3.84 3.84 0 1 0-7.68 0h7.68zM1432.173 143a3.84 3.84 0 1 0 0 7.68 3.84 3.84 0 0 0 0-7.68m0 26.667a3.84 3.84 0 0 0-3.84 3.84h7.68a3.84 3.84 0 0 0-3.84-3.84m-53.333 7.68a3.84 3.84 0 0 0 3.84-3.84h-3.84v3.84zm26.667 0a3.84 3.84 0 0 0 3.84-3.84h-7.68a3.84 3.84 0 0 0 3.84 3.84m26.666 0a3.84 3.84 0 0 0 3.84-3.84h-7.68a3.84 3.84 0 0 0 3.84 3.84m-236.775-5.913l-4.017 2.073h4.632a3.82 3.82 0 0 0-.615-2.073m23.442-1.767a3.84 3.84 0 0 0-3.84 3.84h7.68a3.84 3.84 0 0 0-3.84-3.84m26.667-18.987a3.84 3.84 0 0 0 3.749-3.023 367.002 367.002 0 0 0-6.111 2.19 3.802 3.802 0 0 0 2.362.833m0 18.987a3.84 3.84 0 0 0-3.84 3.84h7.68a3.84 3.84 0 0 0-3.84-3.84m26.666-18.987a3.84 3.84 0 1 0 .001-7.68 3.84 3.84 0 0 0 0 7.68m3.839 22.827a3.84 3.84 0 1 0-7.68 0h7.68zm22.827-22.827a3.84 3.84 0 1 0 0-7.68 3.84 3.84 0 0 0 0 7.68m3.84 22.827a3.84 3.84 0 1 0-7.68 0h7.68zM1325.507 143a3.84 3.84 0 1 0 0 7.68 3.84 3.84 0 0 0 0-7.68m0 26.667a3.84 3.84 0 0 0-3.84 3.84h7.68a3.84 3.84 0 0 0-3.84-3.84M1352.173 143a3.84 3.84 0 1 0 0 7.68 3.84 3.84 0 0 0 0-7.68m0 26.667a3.84 3.84 0 0 0-3.84 3.84h7.68a3.84 3.84 0 0 0-3.84-3.84M1375 146.84a3.84 3.84 0 0 0 3.84 3.84V143a3.84 3.84 0 0 0-3.84 3.84m0 26.667h3.84v-3.84a3.84 3.84 0 0 0-3.84 3.84m-236.16 30.507a3.84 3.84 0 0 0 3.84-3.84 3.82 3.82 0 0 0-1.181-2.762c-.885.36-1.772.705-2.66 1.056v5.546zm0 18.986v7.68a3.84 3.84 0 1 0 0-7.68m0 26.667v7.68a3.84 3.84 0 1 0 0-7.68m26.667-53.333a3.84 3.84 0 1 0 0 7.679 3.84 3.84 0 0 0 0-7.68m0 34.347a3.84 3.84 0 1 0 0-7.68 3.84 3.84 0 0 0 0 7.68" fill="#00cc99"/><g transform="translate(1161 249.347)"><mask id="f" fill="#fff"><use xlink:href="#e"/></mask><path d="M4.507 8a3.84 3.84 0 1 0 0-7.68 3.84 3.84 0 0 0 0 7.68" fill="#00cc99" mask="url(#f)"/></g><path d="M1192.173 177.347a3.84 3.84 0 0 0 3.84-3.84h-4.633l-2.766 1.427a3.834 3.834 0 0 0 3.56 2.413m-.001 18.987a3.84 3.84 0 1 0 0 7.679 3.84 3.84 0 0 0 0-7.68m0 26.667a3.84 3.84 0 1 0 0 7.68 3.84 3.84 0 0 0 0-7.68" fill="#00cc99"/><g transform="translate(1188 249.347)"><mask id="h" fill="#fff"><use xlink:href="#g"/></mask><path d="M4.173 8A3.84 3.84 0 1 0 4.174.32a3.84 3.84 0 0 0 0 7.68" fill="#00cc99" mask="url(#h)"/></g><path d="M1218.84 177.347a3.84 3.84 0 0 0 3.84-3.84H1215a3.84 3.84 0 0 0 3.84 3.84m0 26.667a3.84 3.84 0 1 0 0-7.68 3.84 3.84 0 0 0 0 7.68m0 26.666a3.84 3.84 0 1 0 0-7.68 3.84 3.84 0 0 0 0 7.68" fill="#00cc99"/><g transform="translate(1215 249.347)"><mask id="j" fill="#fff"><use xlink:href="#i"/></mask><path d="M3.84 8a3.84 3.84 0 1 0 0-7.68 3.84 3.84 0 0 0 0 7.68" fill="#00cc99" mask="url(#j)"/></g><path d="M1241.667 173.507a3.84 3.84 0 1 0 7.68 0h-7.68zm3.84 22.827a3.84 3.84 0 1 0 0 7.679 3.84 3.84 0 0 0 0-7.68m0 26.667a3.84 3.84 0 1 0 0 7.68 3.84 3.84 0 0 0 0-7.68m26.666-45.653a3.84 3.84 0 0 0 3.84-3.84h-7.68a3.84 3.84 0 0 0 3.84 3.84m0 26.667a3.84 3.84 0 1 0 .001-7.68 3.84 3.84 0 0 0 0 7.68m-.001 26.666a3.84 3.84 0 1 0 .001-7.68 3.84 3.84 0 0 0 0 7.68m26.666-53.333a3.84 3.84 0 0 0 3.84-3.84H1295a3.84 3.84 0 0 0 3.84 3.84m0 26.667a3.84 3.84 0 1 0 0-7.68 3.84 3.84 0 0 0 0 7.68m26.667-26.667a3.84 3.84 0 0 0 3.84-3.84h-7.68a3.84 3.84 0 0 0 3.84 3.84m26.666 0a3.84 3.84 0 0 0 3.84-3.84h-7.68a3.84 3.84 0 0 0 3.84 3.84m22.827-3.84a3.84 3.84 0 0 0 3.84 3.84v-3.84H1375zm-312.32 53.333a3.84 3.84 0 1 0-7.68 0c0 .627.164 1.21.43 1.732.717.635 1.44 1.265 2.171 1.886.391.134.803.222 1.24.222a3.84 3.84 0 0 0 3.84-3.84m22.826 3.84a3.84 3.84 0 1 0 0-7.68 3.84 3.84 0 0 0 0 7.68m26.666-7.68a3.84 3.84 0 1 0 0 7.68 3.84 3.84 0 0 0 0-7.68m0 26.667a3.84 3.84 0 1 0 0 7.68 3.84 3.84 0 0 0 0-7.68m22.851-49.726c-.005.078-.023.153-.023.232a3.84 3.84 0 0 0 3.839 3.84v-5.546c-1.27.501-2.542.993-3.816 1.474M1135 226.84a3.84 3.84 0 0 0 3.84 3.84V223a3.84 3.84 0 0 0-3.84 3.84m0 26.667a3.84 3.84 0 0 0 3.84 3.84v-7.68a3.84 3.84 0 0 0-3.84 3.84" fill="#00cc99"/></g></svg>